<?xml version="1.0" encoding="utf-8"?>
<!-- Generator: Adobe Illustrator 23.0.3, SVG Export Plug-In . SVG Version: 6.00 Build 0)  -->
<svg version="1.1" id="Calque_1" xmlns="http://www.w3.org/2000/svg" xmlns:xlink="http://www.w3.org/1999/xlink" x="0px" y="0px"
	 viewBox="0 0 100 100" style="enable-background:new 0 0 100 100;" xml:space="preserve">
<style type="text/css">
	.st0{fill:#FFFFFF;}
	.st1{fill:none;stroke:#0081C8;stroke-width:3;}
	.st2{fill:none;stroke:#EE334E;stroke-width:3;}
</style>
<g>
	<path class="st0" d="M4.7,97c-1,0-1.7-0.7-1.7-1.7V4.7C3,3.7,3.7,3,4.7,3h90.7C96.3,3,97,3.7,97,4.7v90.7c0,0.9-0.7,1.7-1.7,1.7
		L4.7,97L4.7,97z"/>
	<path d="M4.7,2v2h90.7C95.7,4,96,4.3,96,4.7v90.7c0,0.4-0.3,0.7-0.7,0.7H4.7C4.3,96,4,95.7,4,95.3V4.7C4,4.3,4.3,4,4.7,4V2 M4.7,2
		C3.2,2,2,3.2,2,4.7v90.7C2,96.8,3.2,98,4.7,98h90.7c1.5,0,2.7-1.2,2.7-2.7V4.7C98,3.2,96.8,2,95.3,2H4.7L4.7,2z"/>
</g>
<g>
	<circle class="st1" cx="24.1" cy="50.6" r="12.6"/>
	<circle class="st2" cx="75.9" cy="50.6" r="12.6"/>
	<path class="st1" d="M34.2,43c3.4,4.5,3.4,10.6,0,15.1"/>
	<path class="st2" d="M75.9,63.2c-2.7,0-5.4-0.9-7.6-2.5"/>
</g>
</svg>
