<?xml version="1.0" encoding="utf-8"?>
<!-- Generator: Adobe Illustrator 23.0.3, SVG Export Plug-In . SVG Version: 6.00 Build 0)  -->
<svg version="1.1" id="Calque_1" xmlns="http://www.w3.org/2000/svg" xmlns:xlink="http://www.w3.org/1999/xlink" x="0px" y="0px"
	 viewBox="0 0 100 100" style="enable-background:new 0 0 100 100;" xml:space="preserve">
<style type="text/css">
	.st0{fill:#FFFFFF;}
	.st1{fill:#FFDF55;}
	.st2{fill:#FF8600;}
	.st3{fill:#FCA133;}
	.st4{fill:none;stroke:#FF7E27;stroke-width:3;}
	.st5{fill:none;stroke:#0081C8;stroke-width:3;}
	.st6{fill:none;stroke:#000000;stroke-width:3;}
	.st7{fill:none;stroke:#EE334E;stroke-width:3;}
	.st8{fill:none;stroke:#FCB131;stroke-width:3;}
	.st9{fill:none;stroke:#00A651;stroke-width:3;}
</style>
<g>
	<path class="st0" d="M4.7,97C3.7,97,3,96.3,3,95.3V4.7C3,3.7,3.7,3,4.7,3h90.7C96.3,3,97,3.7,97,4.7v90.7c0,0.9-0.7,1.7-1.7,1.7
		H4.7z"/>
	<path d="M4.7,2v2h90.7C95.7,4,96,4.3,96,4.7v90.7c0,0.4-0.3,0.7-0.7,0.7H4.7C4.3,96,4,95.7,4,95.3V4.7C4,4.3,4.3,4,4.7,4V2 M4.7,2
		C3.2,2,2,3.2,2,4.7v90.7C2,96.8,3.2,98,4.7,98h90.7c1.5,0,2.7-1.2,2.7-2.7V4.7C98,3.2,96.8,2,95.3,2H4.7L4.7,2z"/>
</g>
<path class="st1" d="M53.2,60.8C53.1,60.8,53.1,60.8,53.2,60.8c1.1,2.5-1,3.5-1.7,4.2c-1.2,1.4-1,2.7-1.1,3.8c0,0.2,0,0.3,0,0.4
	c-0.9,1.9,0.1,3,0.7,4.7c0.1,0.2,0.1,0.2,0.2,0c0.2-0.3,0.4-0.7,0.4-1.2c0-0.4,0.1-0.4,0.3,0c0.6,1.4-0.2,2.4-1.3,3.4
	c-0.1,0.1-0.2,0.3-0.2,0.4c0.1-0.1,0.2-0.2,0.3-0.2c1.6-0.5,2.8-1.9,3-3.5c0.2-1.4-0.5-3.3-1.1-4.7c-0.4-1.9,0.5-2.1,1.2-3.4
	C54.6,63.6,54,62,53.2,60.8z"/>
<path class="st2" d="M48.7,76.8c-3.8,0-6.4-2.4-7.1-6c-0.1-0.6-0.1-1.2-0.1-1.9c0,0,0-0.1,0.1-0.1c0.1,0.1-0.1,2,2,3
	c0.1,0,0.1,0,0,0c-1.9-2-2.5-4.7-0.4-6.8c0,0,0,0,0,0c-1.3,2.4,0.2,3.9,1.9,5.7c-0.2,0.8-0.3,1.5-0.1,2c0.3,1.3,1.2,2.8,2.5,3.4
	C47.8,76.4,48.2,76.6,48.7,76.8z"/>
<path class="st2" d="M58.3,68c-0.1,0,0.2,1.5-1.7,3.2c0,0-0.1,0-0.1,0c-0.3-1.3-0.5-1.5-0.3-2c0.9-2.5,1.6-3.4-0.3-6.1
	c-0.2-0.2,0.4,0.8,0.2,2.5c-0.3,1.3-1.1,1.3-2,3.1c0.1,0.8,0.2,1.6,0.4,2.4c0.6,2.8-0.9,4.8-3.6,5.4c0,0.1,0,0.1,0.1,0.1
	c1.6-0.1,3.3-0.4,4.6-1.3C59.2,72.6,58.5,68,58.3,68z M56.6,65.2C56.6,65.2,56.6,65.2,56.6,65.2C56.6,65.3,56.6,65.3,56.6,65.2z"/>
<path class="st3" d="M51,60.8c0.7-1.5,0.3-2.8-0.6-4c-0.8-1.1-1-1.1-0.9-1c1.1,1.5,0.6,3.2-0.6,4.4c-1.7,1.5-3.8,3.2-3.5,5.8
	c0.1,0.8,0.9,1.5,0.6,3.3c-1.8,3.3-0.1,6.1,3,7.4l0.8,0.2c0-0.1-0.1-0.2-0.1-0.2c-1.1-0.7-2.7-1.9-1.7-3.3c0.1-0.2,0,0.3,0.5,1.2
	c0.1,0.2,0-0.4,0.7-1.5c0.5-0.8,0.3-1.4,0.5-2.2c0.2-0.5,0.3-1.1,0.4-1.6c0.1-2-2-3.1-1.2-5.2C49.2,62.7,50.5,62,51,60.8z
	 M46.5,70.9c-0.1,0-0.3,0-0.1-0.1c1.5-1.4,1-2.9,0.8-4.7c0-0.1,0-0.1,0,0C47.9,67.8,48.6,69.7,46.5,70.9z"/>
<circle class="st4" cx="49.8" cy="67" r="11.9"/>
<g>
	<circle class="st5" cx="21.7" cy="41" r="11.9"/>
	<circle class="st6" cx="49.8" cy="41" r="11.9"/>
	<circle class="st7" cx="78" cy="41" r="11.9"/>
	<circle class="st8" cx="35.8" cy="53" r="11.9"/>
	<circle class="st9" cx="63.9" cy="53" r="11.9"/>
	<path class="st5" d="M31.2,33.9c3.2,4.2,3.2,10,0,14.2"/>
	<path class="st6" d="M59.3,33.9c3.2,4.2,3.2,10,0,14.2 M49.8,52.8c-2.6,0-5.1-0.8-7.1-2.4"/>
	<path class="st7" d="M78,52.8c-2.6,0-5.1-0.8-7.1-2.4"/>
</g>
</svg>
